HIERARCHY
ROOT SpineBase
{
  OFFSET 0.000000 0.000000 0.000000
  CHANNELS 6 Xposition Yposition Zposition Zrotation Xrotation Yrotation
  JOINT SpineMid
  {
    OFFSET 0.000000 25.515287 0.000000
    CHANNELS 3 Zrotation Xrotation Yrotation
    JOINT SpineShoulder
    {
      OFFSET 0.131864 18.927448 -0.745443
      CHANNELS 3 Zrotation Xrotation Yrotation
      JOINT Neck
      {
        OFFSET 0.081938 6.254444 -0.544876
        CHANNELS 3 Zrotation Xrotation Yrotation
        JOINT Head
        {
          OFFSET -4.924247 12.494467 -3.497435
          CHANNELS 3 Zrotation Xrotation Yrotation
          End Site
          {
            OFFSET 0 0 0
          }
        }
      }
      JOINT ShoulderLeft
      {
        OFFSET -16.028436 -4.795270 6.380097
        CHANNELS 3 Zrotation Xrotation Yrotation
        JOINT ElbowLeft
        {
          OFFSET -0.711579 -23.152401 -1.318414
          CHANNELS 3 Zrotation Xrotation Yrotation
          JOINT WristLeft
          {
            OFFSET -0.988840 -14.100027 -12.790354
            CHANNELS 3 Zrotation Xrotation Yrotation
            JOINT HandLeft
            {
              OFFSET 0.515589 0.715426 -2.412258
              CHANNELS 3 Zrotation Xrotation Yrotation
              JOINT HandTipLeft
              {
                OFFSET 3.748342 -1.591362 -3.327186
                CHANNELS 3 Zrotation Xrotation Yrotation
                End Site
                {
                  OFFSET 0 0 0
                }
              }
              JOINT ThumbLeft
              {
                OFFSET -1.241491 1.027853 -0.864898
                CHANNELS 3 Zrotation Xrotation Yrotation
                End Site
                {
                  OFFSET 0 0 0
                }
              }
            }
          }
        }
      }
      JOINT ShoulderRight
      {
        OFFSET 13.599104 -3.024124 -8.024551
        CHANNELS 3 Zrotation Xrotation Yrotation
        JOINT ElbowRight
        {
          OFFSET 4.368019 -20.469281 -2.636279
          CHANNELS 3 Zrotation Xrotation Yrotation
          JOINT WristRight
          {
            OFFSET -8.227531 -13.573941 -7.628746
            CHANNELS 3 Zrotation Xrotation Yrotation
            JOINT HandRight
            {
              OFFSET -4.087680 -1.845955 -2.218454
              CHANNELS 3 Zrotation Xrotation Yrotation
              JOINT HandTipRight
              {
                OFFSET -3.431060 -7.876731 -4.620635
                CHANNELS 3 Zrotation Xrotation Yrotation
                End Site
                {
                  OFFSET 0 0 0
                }
              }
              JOINT ThumbRight
              {
                OFFSET -1.057790 1.117583 -3.078830
                CHANNELS 3 Zrotation Xrotation Yrotation
                End Site
                {
                  OFFSET 0 0 0
                }
              }
            }
          }
        }
      }
    }
  }
  JOINT HipLeft
  {
    OFFSET -5.711710 -0.132414 0.737521
    CHANNELS 3 Zrotation Xrotation Yrotation
    JOINT KneeLeft
    {
      OFFSET 0.124026 -38.549957 9.927234
      CHANNELS 3 Zrotation Xrotation Yrotation
      JOINT AnkleLeft
      {
        OFFSET 0.765765 -31.518355 7.352222
        CHANNELS 3 Zrotation Xrotation Yrotation
        JOINT FootLeft
        {
          OFFSET 2.916293 -4.836912 -9.737107
          CHANNELS 3 Zrotation Xrotation Yrotation
          End Site
          {
            OFFSET 0 0 0
          }
        }
      }
    }
  }
  JOINT HipRight
  {
    OFFSET 6.232318 0.989324 -6.842786
    CHANNELS 3 Zrotation Xrotation Yrotation
    JOINT KneeRight
    {
      OFFSET -26.983870 -8.457356 -29.759428
      CHANNELS 3 Zrotation Xrotation Yrotation
      JOINT AnkleRight
      {
        OFFSET 16.457034 -31.885830 25.008084
        CHANNELS 3 Zrotation Xrotation Yrotation
        JOINT FootRight
        {
          OFFSET -4.171709 -4.556914 -11.466657
          CHANNELS 3 Zrotation Xrotation Yrotation
          End Site
          {
            OFFSET 0 0 0
          }
        }
      }
    }
  }
}
MOTION
Frames: 10
Frame Time: 0.033333
-30.090347 77.295405 363.963897 -0.000000 0.000000 32.401359 0.000000 0.000000 -32.401359 -0.000000 0.000000 0.000000 -0.000000 0.000000 0.000000 0.000000 0.000000 0.000000 -0.000000 0.000000 0.000000 -0.000000 0.000000 0.000000 -0.000000 0.000000 0.000000 -0.000000 0.000000 0.000000 0.000000 0.000000 0.000000 0.000000 0.000000 0.000000 -0.000000 0.000000 0.000000 -0.000000 0.000000 0.000000 -0.000000 0.000000 0.000000 -0.000000 0.000000 0.000000 0.000000 0.000000 0.000000 0.000000 0.000000 0.000000 0.000000 0.000000 -32.401359 -0.000000 0.000000 0.000000 -0.000000 0.000000 0.000000 0.000000 0.000000 0.000000 0.000000 0.000000 -32.401359 -0.000000 0.000000 0.000000 -0.000000 0.000000 0.000000 0.000000 0.000000 0.000000
-30.067250 77.293986 364.068364 0.058089 -0.164124 32.882557 0.040324 0.169367 -32.882534 -0.000000 0.000000 0.000000 -0.000000 0.000000 0.000000 0.000000 0.000000 0.000000 -0.000000 0.000000 0.000000 0.866665 -0.823954 -0.727283 4.886885 6.913751 19.609363 -8.373064 -3.559566 -17.855800 0.000000 0.000000 0.000000 0.000000 0.000000 0.000000 -0.000000 0.000000 0.000000 -2.311034 0.684017 0.884404 7.683723 -2.526813 -3.735970 -7.776899 2.113755 4.131028 0.000000 0.000000 0.000000 0.000000 0.000000 0.000000 0.040324 0.169367 -32.882534 -0.000000 0.000000 0.000000 2.648225 -0.214680 -5.397618 0.000000 0.000000 0.000000 0.040324 0.169367 -32.882534 -0.000000 0.000000 0.000000 -0.000000 0.000000 0.000000 0.000000 0.000000 0.000000
-30.061205 77.286601 364.126162 0.092549 -0.264826 33.220816 0.067667 0.272248 -33.220762 -0.000000 0.000000 0.000000 -0.000000 0.000000 0.000000 0.000000 0.000000 0.000000 -0.000000 0.000000 0.000000 1.435074 -1.393009 -1.200957 7.131059 13.230413 34.113706 -15.544888 -3.553603 -29.798187 0.000000 0.000000 0.000000 0.000000 0.000000 0.000000 -0.000000 0.000000 0.000000 -3.929833 1.189428 1.489574 12.328046 -4.301482 -5.868751 -13.157717 3.144757 7.113483 0.000000 0.000000 0.000000 0.000000 0.000000 0.000000 0.067667 0.272248 -33.220762 -0.000000 0.000000 0.000000 4.693121 -0.676135 -9.685214 0.000000 0.000000 0.000000 0.067667 0.272248 -33.220762 -0.000000 0.000000 0.000000 -0.000000 0.000000 0.000000 0.000000 0.000000 0.000000
-30.072214 77.273251 364.137290 0.103421 -0.302217 33.416089 0.080111 0.309213 -33.416032 -0.000000 0.000000 0.000000 -0.169214 1.001526 0.349897 0.000000 0.000000 0.000000 -0.000000 0.000000 0.000000 1.714192 -1.701862 -1.430971 7.877184 17.621860 43.536993 -20.352499 -1.486403 -34.289911 0.000000 0.000000 0.000000 0.000000 0.000000 0.000000 -0.000000 0.000000 0.000000 -5.052968 1.586245 1.884898 15.235880 -5.509716 -7.170515 -16.999154 3.588925 9.339882 0.000000 0.000000 0.000000 0.000000 0.000000 0.000000 0.080111 0.309213 -33.416032 -0.000000 0.000000 0.000000 6.089939 -1.248405 -12.774171 0.000000 0.000000 0.000000 0.080111 0.309213 -33.416032 -0.000000 0.000000 0.000000 -0.000000 0.000000 0.000000 0.000000 0.000000 0.000000
-30.100276 77.253934 364.101748 0.090746 -0.276408 33.468373 0.076733 0.280622 -33.468342 -0.000000 0.000000 0.000000 -0.152564 1.268834 0.460737 0.000000 0.000000 0.000000 -0.000000 0.000000 0.000000 1.709104 -1.748631 -1.422857 8.206561 20.253302 49.251396 -23.220216 1.551013 -32.283049 0.000000 0.000000 0.000000 0.000000 0.000000 0.000000 -0.000000 0.000000 0.000000 -5.797782 1.914888 2.112492 17.010146 -6.292460 -7.983251 -19.639696 3.648097 10.984789 0.000000 0.000000 0.000000 0.000000 0.000000 0.000000 0.076733 0.280622 -33.468342 -0.000000 0.000000 0.000000 6.845234 -1.834380 -14.655917 0.000000 0.000000 0.000000 0.076733 0.280622 -33.468342 -0.000000 0.000000 0.000000 -0.000000 0.000000 0.000000 0.000000 0.000000 0.000000
-30.145391 77.228652 364.019536 0.054566 -0.187509 33.377659 0.057593 0.186602 -33.377664 -0.000000 0.000000 0.000000 -0.099499 1.504526 0.568724 0.000000 0.000000 0.000000 -0.000000 0.000000 0.000000 1.420651 -1.534064 -1.177431 8.637935 21.533125 52.323300 -24.694844 4.860585 -25.857495 0.000000 0.000000 0.000000 0.000000 0.000000 0.000000 -0.000000 0.000000 0.000000 -6.233847 2.200253 2.196516 17.947495 -6.735267 -8.473343 -21.204494 3.419324 12.124923 0.000000 0.000000 0.000000 0.000000 0.000000 0.000000 0.057593 0.186602 -33.377664 -0.000000 0.000000 0.000000 6.981144 -2.381300 -15.347450 0.000000 0.000000 0.000000 0.057593 0.186602 -33.377664 -0.000000 0.000000 0.000000 -0.000000 0.000000 0.000000 0.000000 0.000000 0.000000
-30.256196 77.197915 363.955379 -0.082495 -0.127358 33.292834 0.138865 0.061173 -33.293000 -0.000000 0.000000 0.000000 -0.135553 1.981940 0.749558 0.000000 0.000000 0.000000 -0.000000 0.000000 0.000000 1.601864 -1.570199 -1.338990 9.097024 21.063301 56.941403 -24.070455 9.141374 -24.284161 0.000000 0.000000 0.000000 0.000000 0.000000 0.000000 -0.000000 0.000000 0.000000 -6.571170 2.410197 2.268368 18.373703 -6.811689 -9.098747 -21.163929 2.516115 12.823981 0.000000 0.000000 0.000000 0.000000 0.000000 0.000000 0.138865 0.061173 -33.293000 -0.000000 0.000000 0.000000 6.200124 -2.029208 -13.584160 0.000000 0.000000 0.000000 0.138865 0.061173 -33.293000 -0.000000 0.000000 0.000000 -0.000000 0.000000 0.000000 0.000000 0.000000 0.000000
-30.370154 77.160547 363.782024 -0.210922 0.082931 32.952817 0.131879 -0.184319 -32.952452 -0.000000 0.000000 0.000000 -0.110417 2.227170 0.854064 0.000000 0.000000 0.000000 -0.000000 0.000000 0.000000 -0.000000 0.000000 0.000000 8.437303 28.077146 51.521855 -26.975677 4.105585 -10.761975 0.000000 0.000000 0.000000 0.000000 0.000000 0.000000 -0.000000 0.000000 0.000000 -6.486583 2.849428 1.987238 17.742577 -6.789092 -8.704686 -20.673145 0.313076 13.624832 0.000000 0.000000 0.000000 0.000000 0.000000 0.000000 0.131879 -0.184319 -32.952452 -0.000000 0.000000 0.000000 4.702384 -2.429447 -11.000769 0.000000 0.000000 0.000000 0.131879 -0.184319 -32.952452 -0.000000 0.000000 0.000000 -0.000000 0.000000 0.000000 0.000000 0.000000 0.000000
-30.443994 77.109146 363.511836 -0.285820 0.433983 32.345925 0.009281 -0.519564 -32.344800 -0.000000 0.000000 0.000000 0.254533 2.136915 0.912734 0.000000 0.000000 0.000000 -0.000000 0.000000 0.000000 -1.139716 0.881508 0.973340 9.837281 27.221568 47.294210 -24.009631 7.442430 4.899055 0.000000 0.000000 0.000000 0.000000 0.000000 0.000000 -0.695479 0.492588 0.197825 -5.466735 2.795977 1.346774 16.902645 -6.669313 -8.383478 -21.028512 1.062508 13.621596 0.000000 0.000000 0.000000 0.000000 0.000000 0.000000 0.009281 -0.519564 -32.344800 -0.000000 0.000000 0.000000 3.260340 -3.517983 -8.969770 0.000000 0.000000 0.000000 0.009281 -0.519564 -32.344800 -0.000000 0.000000 0.000000 -0.000000 0.000000 0.000000 0.000000 0.000000 0.000000
-30.481890 77.052559 363.245292 -0.290629 0.798200 31.529098 -0.169680 -0.832342 -31.528306 -0.000000 0.000000 0.000000 0.731032 1.834588 0.917813 0.000000 0.000000 0.000000 -0.000000 0.000000 0.000000 -2.800707 2.046708 2.404122 13.250817 12.954915 40.468486 -19.082383 10.718463 3.102831 0.000000 0.000000 0.000000 0.000000 0.000000 0.000000 -0.745039 0.917873 0.297902 -4.645135 2.550672 0.696683 14.921596 -5.947233 -7.875388 -18.620779 0.746695 12.706704 0.000000 0.000000 0.000000 0.000000 0.000000 0.000000 -0.169680 -0.832342 -31.528306 -0.000000 0.000000 0.000000 1.916273 -5.351638 -7.627786 0.000000 0.000000 0.000000 -0.224885 -0.020006 -31.970717 0.476970 -0.659884 0.444747 -0.000000 0.000000 0.000000 0.000000 0.000000 0.000000
